<svg xmlns="http://www.w3.org/2000/svg" viewBox="0 0 333.74 312.67"><defs><style>.cls-1{fill:#c8c0a5;}.cls-2{fill:#efe5d6;}.cls-3{fill:#ce663d;}.cls-4{fill:#fff;}.cls-5{fill:#d69742;}.cls-6{fill:#48633a;}.cls-7{fill:#14221f;}.cls-8{fill:#43574f;}.cls-9{fill:#e7ddcd;}.cls-10{fill:#a15915;}.cls-11{fill:#b47427;}.cls-12{fill:#221b22;}.cls-13{fill:#6c370d;}.cls-14{fill:#ab4425;}.cls-15{fill:#374a2c;}</style></defs><title>imagen</title><g id="Capa_2" data-name="Capa 2"><g id="OBJECTS"><path class="cls-1" d="M21.05,30.58l-13,161.05a6.15,6.15,0,0,0,6.13,6.65H42.29Z"/><rect class="cls-2" x="21.05" y="25.52" width="270.6" height="172.76" rx="5.06"/><rect class="cls-3" x="37.2" y="64.07" width="30.91" height="27.85"/><rect class="cls-4" x="39.95" y="66.82" width="25.41" height="22.35"/><rect class="cls-4" x="71.56" y="64.07" width="30.91" height="27.85"/><rect class="cls-1" x="73.93" y="65.85" width="7.02" height="7.02" rx="0.24"/><rect class="cls-4" x="105.92" y="64.07" width="30.91" height="27.85"/><rect class="cls-1" x="108.28" y="66.03" width="26.19" height="2.07" rx="0.27"/><path class="cls-1" d="M123.75,70.61H109.36a1.07,1.07,0,0,0-1.08,1,1,1,0,0,0,1,1.06h14.43a1,1,0,0,0,1-1h0A1,1,0,0,0,123.75,70.61Z"/><rect class="cls-5" x="140.29" y="64.07" width="30.91" height="27.85"/><rect class="cls-4" x="143.04" y="66.82" width="25.41" height="22.35"/><rect class="cls-4" x="174.65" y="64.07" width="30.91" height="27.85"/><path class="cls-1" d="M202.17,69.36H178.05a1,1,0,0,1-1-1h0a1,1,0,0,1,1-1h24.12a1,1,0,0,1,1,1h0A1,1,0,0,1,202.17,69.36Z"/><path class="cls-1" d="M192.47,71.87H178.09a1.07,1.07,0,0,0-1.08,1,1,1,0,0,0,1,1.07h14.42a1,1,0,0,0,1-1h0A1,1,0,0,0,192.47,71.87Z"/><rect class="cls-4" x="209.02" y="64.07" width="30.91" height="27.85"/><path class="cls-3" d="M211.09,81.61a50.52,50.52,0,0,0,7.13-5.48,45,45,0,0,1-5.79-8.79,1.21,1.21,0,1,1,2.2-1,43.37,43.37,0,0,0,5.34,8.1,41.59,41.59,0,0,0,5.37-6.51,1.21,1.21,0,0,1,2.06,1.27,43.28,43.28,0,0,1-5.84,7.1,49.4,49.4,0,0,0,5.57,5.33,1.21,1.21,0,0,1,.17,1.71,1.18,1.18,0,0,1-.93.44,1.25,1.25,0,0,1-.77-.27A53.56,53.56,0,0,1,219.8,78a53,53,0,0,1-7.42,5.69,1.24,1.24,0,0,1-.64.18,1.21,1.21,0,0,1-.65-2.23Z"/><rect class="cls-4" x="243.38" y="64.07" width="30.91" height="27.85"/><path class="cls-1" d="M271.06,69.29H246.93a1,1,0,0,1-1-1h0a1,1,0,0,1,1-1h24.13a1,1,0,0,1,1,1h0A1,1,0,0,1,271.06,69.29Z"/><rect class="cls-4" x="37.2" y="94.76" width="30.91" height="27.85"/><path class="cls-1" d="M57.28,86.92l-.32,0a8.38,8.38,0,0,1-1.44-.27,11.16,11.16,0,0,1-3.26-1.57,17.9,17.9,0,0,1-2.71-2.29,27.41,27.41,0,0,1-2.95-3.69,13.33,13.33,0,0,1-1.72-3.38,7.68,7.68,0,0,1-.39-1.94c0-.17,0-.35,0-.52v-.31l.08-.86s0,0,0-.07l0-.17.09-.41a5,5,0,0,1,1.06-2,4.84,4.84,0,0,1,1.27-1,1.84,1.84,0,0,1,2.39.45l2.29,2.8a1.9,1.9,0,0,1-.26,2.65c-.3.27-.63.53-.94.78l-.19.15a11.6,11.6,0,0,0,4.49,5.47h0l.7-.58.42-.34a1.86,1.86,0,0,1,2.24-.1,2.57,2.57,0,0,1,.56.53l1,1.2,1.09,1.32a2.34,2.34,0,0,1,.53,1.18.29.29,0,0,1,0,.13l0,.37a.63.63,0,0,1-.08.23l-.09.17a1.84,1.84,0,0,1-.37.57,5.21,5.21,0,0,1-1.55,1.12A4.6,4.6,0,0,1,57.28,86.92ZM45.59,73v.2c0,.16,0,.33,0,.49A6.91,6.91,0,0,0,46,75.35a12.63,12.63,0,0,0,1.58,3.1A25.71,25.71,0,0,0,50.37,82a16,16,0,0,0,2.52,2.14,10.13,10.13,0,0,0,2.94,1.42,6.9,6.9,0,0,0,1.23.23,3.34,3.34,0,0,0,1.67-.34A4.32,4.32,0,0,0,60,84.54a1.08,1.08,0,0,0,.15-.27l.07-.12V84a1.13,1.13,0,0,0-.27-.55l-1.09-1.32c-.32-.4-.65-.8-1-1.19a1.48,1.48,0,0,0-.3-.31.74.74,0,0,0-.93.06l-.38.3-1,.85a.56.56,0,0,1-.66,0,12.92,12.92,0,0,1-5.45-6.66.55.55,0,0,1,.22-.67l.06,0,0,0,.36-.29c.3-.24.61-.5.9-.75a.75.75,0,0,0,.12-1.09c-.7-.86-1.44-1.77-2.28-2.78a.71.71,0,0,0-1-.2,4.1,4.1,0,0,0-1,.81,3.62,3.62,0,0,0-.81,1.55c0,.13-.07.26-.1.39l0,.13Z"/><rect class="cls-4" x="71.56" y="94.76" width="30.91" height="27.85"/><path class="cls-1" d="M99.09,99.54H75a1,1,0,0,1-1-1h0a1,1,0,0,1,1-1H99.09a1,1,0,0,1,1,1h0A1,1,0,0,1,99.09,99.54Z"/><rect class="cls-4" x="105.92" y="94.76" width="30.91" height="27.85"/><rect class="cls-1" x="108.28" y="97.1" width="7.02" height="7.02" rx="0.24"/><path class="cls-1" d="M155.74,86.42A8.43,8.43,0,1,1,164.17,78,8.44,8.44,0,0,1,155.74,86.42Zm0-15.7A7.28,7.28,0,1,0,163,78,7.28,7.28,0,0,0,155.74,70.72Z"/><path class="cls-1" d="M155.74,78.57a.58.58,0,0,1-.57-.58V72.41a.58.58,0,0,1,1.15,0v4.94l4.12-.5a.58.58,0,0,1,.64.51.57.57,0,0,1-.5.63l-4.77.57Z"/><rect class="cls-4" x="140.29" y="94.76" width="30.91" height="27.85"/><path class="cls-1" d="M167.81,99.54H143.68a1,1,0,0,1-1-1h0a1,1,0,0,1,1-1h24.13a1,1,0,0,1,1,1h0A1,1,0,0,1,167.81,99.54Z"/><rect class="cls-4" x="174.65" y="94.76" width="30.91" height="27.85"/><path class="cls-1" d="M202.17,99.54H178.05a1,1,0,0,1-1-1h0a1,1,0,0,1,1-1h24.12a1,1,0,0,1,1,1h0A1,1,0,0,1,202.17,99.54Z"/><path class="cls-1" d="M192.47,102.06H178.09a1.06,1.06,0,0,0-1.08,1,1,1,0,0,0,1,1.06h14.42a1,1,0,0,0,1-1h0A1,1,0,0,0,192.47,102.06Z"/><path class="cls-1" d="M65,99.54H40.83a1,1,0,0,1-1-1h0a1,1,0,0,1,1-1H65a1,1,0,0,1,1,1h0A1,1,0,0,1,65,99.54Z"/><path class="cls-1" d="M55.26,102.06H40.87a1.06,1.06,0,0,0-1.08,1,1,1,0,0,0,1,1.06H55.26a1,1,0,0,0,1-1h0A1,1,0,0,0,55.26,102.06Z"/><rect class="cls-4" x="209.02" y="94.76" width="30.91" height="27.85"/><rect class="cls-1" x="212.08" y="97.1" width="7.02" height="7.02" rx="0.24"/><rect class="cls-4" x="243.38" y="94.76" width="30.91" height="27.85"/><path class="cls-1" d="M270.53,99.81H246.4a1,1,0,0,1-1-1h0a1,1,0,0,1,1-1h24.13a1,1,0,0,1,1,1h0A1,1,0,0,1,270.53,99.81Z"/><path class="cls-1" d="M260.83,102.32H246.45a1.07,1.07,0,0,0-1.08,1,1,1,0,0,0,1,1.07h14.43a1,1,0,0,0,1-1h0A1,1,0,0,0,260.83,102.32Z"/><rect class="cls-4" x="37.2" y="125.46" width="30.91" height="27.85"/><rect class="cls-1" x="39.79" y="128.1" width="7.02" height="7.02" rx="0.24"/><rect class="cls-6" x="71.56" y="125.46" width="30.91" height="27.85"/><rect class="cls-4" x="74.31" y="128.21" width="25.41" height="22.35"/><path class="cls-1" d="M83,144.9l-.2,0a1.06,1.06,0,0,1-.77-.58l-2.23-4.24a1.12,1.12,0,0,1,.47-1.5,1.11,1.11,0,0,1,1.49.47l1.57,3,10.46-9.29a1.11,1.11,0,0,1,1.56.09,1.1,1.1,0,0,1-.09,1.56L83.71,144.62A1.14,1.14,0,0,1,83,144.9Z"/><rect class="cls-4" x="140.29" y="125.46" width="30.91" height="27.85"/><path class="cls-3" d="M142.93,143.33a49.8,49.8,0,0,0,7.13-5.49,44.35,44.35,0,0,1-5.79-8.79,1.21,1.21,0,0,1,2.2-1,43.49,43.49,0,0,0,5.34,8.11,42.14,42.14,0,0,0,5.37-6.51,1.21,1.21,0,0,1,2.06,1.27,43.13,43.13,0,0,1-5.84,7.1,48.7,48.7,0,0,0,5.58,5.33,1.22,1.22,0,0,1,.17,1.7,1.21,1.21,0,0,1-1.7.18,52.65,52.65,0,0,1-5.8-5.53,52.28,52.28,0,0,1-7.42,5.68,1.21,1.21,0,0,1-1.3-2Z"/><rect class="cls-4" x="105.92" y="125.46" width="30.91" height="27.85"/><rect class="cls-4" x="174.65" y="125.46" width="30.91" height="27.85"/><rect class="cls-4" x="209.02" y="125.46" width="30.91" height="27.85"/><path class="cls-1" d="M236.54,130.17H212.41a1,1,0,0,1-1-1h0a1,1,0,0,1,1-1h24.13a1,1,0,0,1,1,1h0A1,1,0,0,1,236.54,130.17Z"/><rect class="cls-4" x="243.38" y="125.46" width="30.91" height="27.85"/><rect class="cls-4" x="37.2" y="156.15" width="30.91" height="27.85"/><rect class="cls-4" x="71.56" y="156.15" width="30.91" height="27.85"/><rect class="cls-4" x="105.92" y="156.15" width="30.91" height="27.85"/><rect class="cls-1" x="108.42" y="159.42" width="7.02" height="7.02" rx="0.24"/><rect class="cls-4" x="140.29" y="156.15" width="30.91" height="27.85"/><path class="cls-1" d="M167.81,160.82H143.68a1,1,0,0,1-1-1h0a1,1,0,0,1,1-1h24.13a1,1,0,0,1,1,1h0A1,1,0,0,1,167.81,160.82Z"/><path class="cls-1" d="M158.11,163.34H143.72a1.05,1.05,0,0,0-1.07,1,1,1,0,0,0,1,1.06h14.43a1,1,0,0,0,1-1h0A1,1,0,0,0,158.11,163.34Z"/><rect class="cls-4" x="174.65" y="156.15" width="30.91" height="27.85"/><rect class="cls-4" x="209.02" y="156.15" width="30.91" height="27.85"/><rect class="cls-4" x="243.38" y="156.15" width="30.91" height="27.85"/><path class="cls-1" d="M270.53,160.82H246.4a1,1,0,0,1-1-1h0a1,1,0,0,1,1-1h24.13a1,1,0,0,1,1,1h0A1,1,0,0,1,270.53,160.82Z"/><path class="cls-1" d="M260.83,163.34H246.45a1.06,1.06,0,0,0-1.08,1,1,1,0,0,0,1,1.06h14.43a1,1,0,0,0,1-1h0A1,1,0,0,0,260.83,163.34Z"/><rect class="cls-6" x="243.38" y="56.14" width="30.91" height="5.08"/><rect class="cls-5" x="209.02" y="56.14" width="30.91" height="5.08"/><rect class="cls-3" x="174.65" y="56.14" width="30.91" height="5.08"/><rect class="cls-6" x="140.29" y="56.14" width="30.91" height="5.08"/><rect class="cls-6" x="37.2" y="56.14" width="30.91" height="5.08"/><rect class="cls-5" x="105.92" y="56.14" width="30.91" height="5.08"/><rect class="cls-3" x="71.56" y="56.14" width="30.91" height="5.08"/><path class="cls-7" d="M21.05,30.58v14h270.6v-14a5.06,5.06,0,0,0-5.06-5.06H26.11A5.05,5.05,0,0,0,21.05,30.58Z"/><path class="cls-8" d="M273.51,31.89a2.43,2.43,0,1,0,2.42-2.42A2.42,2.42,0,0,0,273.51,31.89Z"/><path class="cls-5" d="M265.32,25.52a7.38,7.38,0,0,1-.21-2.45,7.53,7.53,0,0,1,15,.58,7.73,7.73,0,0,1-.24,1.87,7.56,7.56,0,0,1-4.42,5.08,1.32,1.32,0,0,0-.75.89v.06A1.29,1.29,0,0,0,276.5,33a10.12,10.12,0,0,0,6-7.45,10.28,10.28,0,0,0,.17-1.67,10.1,10.1,0,1,0-20.2-.2,10.49,10.49,0,0,0,.17,1.87Z"/><path class="cls-8" d="M250.08,31.89a2.43,2.43,0,1,0,2.42-2.42A2.42,2.42,0,0,0,250.08,31.89Z"/><path class="cls-5" d="M241.89,25.52a7.38,7.38,0,0,1-.21-2.45,7.53,7.53,0,0,1,15,.58,7.26,7.26,0,0,1-.24,1.87,7.56,7.56,0,0,1-4.42,5.08,1.28,1.28,0,0,0-.74.89l0,.06A1.29,1.29,0,0,0,253.07,33a10.12,10.12,0,0,0,6-7.45,10.28,10.28,0,0,0,.18-1.67,10.11,10.11,0,1,0-20.21-.2,10.49,10.49,0,0,0,.17,1.87Z"/><path class="cls-8" d="M226.65,31.89a2.43,2.43,0,1,0,2.43-2.42A2.42,2.42,0,0,0,226.65,31.89Z"/><path class="cls-5" d="M218.46,25.52a8,8,0,0,1-.21-2.45,7.53,7.53,0,0,1,15,.58,7.26,7.26,0,0,1-.24,1.87,7.57,7.57,0,0,1-4.41,5.08,1.27,1.27,0,0,0-.75.89l0,.06A1.29,1.29,0,0,0,229.64,33a10.1,10.1,0,0,0,6-7.45,9.28,9.28,0,0,0,.18-1.67,10.11,10.11,0,1,0-20.21-.2,10.49,10.49,0,0,0,.17,1.87Z"/><path class="cls-8" d="M203.23,31.89a2.42,2.42,0,1,0,2.42-2.42A2.42,2.42,0,0,0,203.23,31.89Z"/><path class="cls-5" d="M195,25.52a8,8,0,0,1-.21-2.45,7.53,7.53,0,0,1,15,.58,7.72,7.72,0,0,1-.23,1.87,7.6,7.6,0,0,1-4.42,5.08,1.27,1.27,0,0,0-.75.89v.06A1.29,1.29,0,0,0,206.22,33a10.14,10.14,0,0,0,6-7.45,10.28,10.28,0,0,0,.17-1.67,10.11,10.11,0,1,0-20.21-.2,10.49,10.49,0,0,0,.17,1.87Z"/><path class="cls-8" d="M179.8,31.89a2.42,2.42,0,1,0,2.42-2.42A2.42,2.42,0,0,0,179.8,31.89Z"/><path class="cls-5" d="M171.61,25.52a7.65,7.65,0,0,1-.22-2.45,7.53,7.53,0,0,1,15,.58,7.72,7.72,0,0,1-.23,1.87,7.56,7.56,0,0,1-4.42,5.08,1.27,1.27,0,0,0-.75.89v.06A1.29,1.29,0,0,0,182.79,33a10.12,10.12,0,0,0,6-7.45,10.28,10.28,0,0,0,.17-1.67,10.11,10.11,0,1,0-20.21-.2,9.64,9.64,0,0,0,.18,1.87Z"/><path class="cls-8" d="M156.37,31.89a2.42,2.42,0,1,0,2.42-2.42A2.42,2.42,0,0,0,156.37,31.89Z"/><path class="cls-5" d="M148.18,25.52a7.38,7.38,0,0,1-.21-2.45,7.52,7.52,0,0,1,15,.58,7.72,7.72,0,0,1-.23,1.87,7.56,7.56,0,0,1-4.42,5.08,1.29,1.29,0,0,0-.75.89v.06A1.29,1.29,0,0,0,159.36,33a10.12,10.12,0,0,0,6-7.45,10.28,10.28,0,0,0,.17-1.67,10.11,10.11,0,1,0-20.21-.2,9.64,9.64,0,0,0,.18,1.87Z"/><path class="cls-8" d="M132.94,31.89a2.42,2.42,0,1,0,2.42-2.42A2.42,2.42,0,0,0,132.94,31.89Z"/><path class="cls-5" d="M124.75,25.52a7.38,7.38,0,0,1-.21-2.45,7.53,7.53,0,0,1,15,.58,7.73,7.73,0,0,1-.24,1.87,7.56,7.56,0,0,1-4.42,5.08,1.29,1.29,0,0,0-.75.89v.06A1.29,1.29,0,0,0,135.93,33a10.12,10.12,0,0,0,6-7.45,10.28,10.28,0,0,0,.17-1.67,10.1,10.1,0,1,0-20.2-.2,9.64,9.64,0,0,0,.17,1.87Z"/><path class="cls-8" d="M109.51,31.89a2.43,2.43,0,1,0,2.42-2.42A2.42,2.42,0,0,0,109.51,31.89Z"/><path class="cls-5" d="M101.32,25.52a7.38,7.38,0,0,1-.21-2.45,7.53,7.53,0,0,1,15,.58,7.26,7.26,0,0,1-.24,1.87,7.56,7.56,0,0,1-4.42,5.08,1.32,1.32,0,0,0-.75.89v.06A1.29,1.29,0,0,0,112.5,33a10.12,10.12,0,0,0,6-7.45,9.27,9.27,0,0,0,.17-1.67,10.1,10.1,0,1,0-20.2-.2,10.49,10.49,0,0,0,.17,1.87Z"/><path class="cls-8" d="M86.08,31.89a2.43,2.43,0,1,0,2.43-2.42A2.42,2.42,0,0,0,86.08,31.89Z"/><path class="cls-5" d="M77.89,25.52a7.65,7.65,0,0,1-.21-2.45,7.53,7.53,0,0,1,15,.58,7.26,7.26,0,0,1-.24,1.87,7.57,7.57,0,0,1-4.41,5.08,1.27,1.27,0,0,0-.75.89l0,.06A1.29,1.29,0,0,0,89.07,33a10.12,10.12,0,0,0,6-7.45,9.28,9.28,0,0,0,.18-1.67,10.11,10.11,0,1,0-20.21-.2,10.49,10.49,0,0,0,.17,1.87Z"/><path class="cls-8" d="M62.66,31.89a2.42,2.42,0,1,0,2.42-2.42A2.42,2.42,0,0,0,62.66,31.89Z"/><path class="cls-5" d="M54.46,25.52a8,8,0,0,1-.21-2.45,7.53,7.53,0,0,1,15,.58,7.72,7.72,0,0,1-.23,1.87,7.6,7.6,0,0,1-4.42,5.08,1.27,1.27,0,0,0-.75.89v.06A1.29,1.29,0,0,0,65.65,33a10.14,10.14,0,0,0,6-7.45,10.28,10.28,0,0,0,.17-1.67,10.11,10.11,0,1,0-20.21-.2,10.49,10.49,0,0,0,.17,1.87Z"/><path class="cls-8" d="M39.23,31.89a2.42,2.42,0,1,0,2.42-2.42A2.42,2.42,0,0,0,39.23,31.89Z"/><path class="cls-5" d="M31,25.52a7.65,7.65,0,0,1-.22-2.45,7.53,7.53,0,0,1,15,.58,7.72,7.72,0,0,1-.23,1.87A7.56,7.56,0,0,1,41.2,30.6a1.27,1.27,0,0,0-.75.89v.06A1.29,1.29,0,0,0,42.22,33a10.12,10.12,0,0,0,6-7.45,10.28,10.28,0,0,0,.17-1.67,10.11,10.11,0,1,0-20.21-.2,10.49,10.49,0,0,0,.17,1.87Z"/><path class="cls-9" d="M323.66,305.79c0,3.8-69.12,6.88-154.39,6.88s-154.4-3.08-154.4-6.88,69.13-6.88,154.4-6.88S323.66,302,323.66,305.79Z"/><path class="cls-7" d="M264.06,100.66s9.74-6,26.38-3.75c17.72,2.41,27.86,29.38,22.63,106.48H293.54Z"/><path class="cls-7" d="M222.86,232h85.23a5,5,0,0,0,5-5V203.39H222.86a3.08,3.08,0,0,0-3.08,3.08V229A3.08,3.08,0,0,0,222.86,232Z"/><path class="cls-7" d="M269.72,258.09h-6.81a.93.93,0,0,1-.93-.93V227.24h8.68v29.92A.94.94,0,0,1,269.72,258.09Z"/><path class="cls-7" d="M292.07,293.31v5.51h-4v-2.49a1.27,1.27,0,0,0-1.27-1.27h-17.1a1.07,1.07,0,0,0-1.07,1.07v2.69H264v-2.69a1.07,1.07,0,0,0-1.07-1.07H246a1.27,1.27,0,0,0-1.28,1.27v2.49h-4v-5.51a2.24,2.24,0,0,1,2.25-2.24H264v-71h4.64v71h21.19A2.24,2.24,0,0,1,292.07,293.31Z"/><path class="cls-7" d="M248.69,302.39a5.95,5.95,0,1,1-5.95-5.95A5.94,5.94,0,0,1,248.69,302.39Z"/><path class="cls-8" d="M242.74,305.79a3.41,3.41,0,1,1,3.41-3.4A3.4,3.4,0,0,1,242.74,305.79Z"/><path class="cls-7" d="M272.33,302.39a5.95,5.95,0,1,1-5.95-5.95A5.94,5.94,0,0,1,272.33,302.39Z"/><path class="cls-8" d="M266.38,305.79a3.41,3.41,0,1,1,3.41-3.4A3.4,3.4,0,0,1,266.38,305.79Z"/><path class="cls-7" d="M296.05,302.39a5.95,5.95,0,1,1-5.95-5.95A5.94,5.94,0,0,1,296.05,302.39Z"/><path class="cls-8" d="M290.1,305.79a3.41,3.41,0,1,1,3.41-3.4A3.4,3.4,0,0,1,290.1,305.79Z"/><path class="cls-10" d="M233.41,121.23l-.2,1L233,123.4l-.49,2.29c-.34,1.54-.71,3.07-1.09,4.59s-.78,3.05-1.2,4.55-.86,3-1.32,4.47-1,2.93-1.47,4.36-1,2.83-1.63,4.18-1.17,2.68-1.81,3.93a40.11,40.11,0,0,1-2,3.52,24.13,24.13,0,0,1-2.1,2.86,11.35,11.35,0,0,1-1.92,1.78,6.11,6.11,0,0,1-.7.42,3.51,3.51,0,0,1-.51.2h-.05l-.29.05-.59.1-1.18.2-2.37.38-2.39.38-2.4.36c-1.6.24-3.21.5-4.83.72l-2.42.37c-.81.11-1.62.24-2.43.36l-1.21.18-1.22.19-1.2.19-1.18.2-.34.06a7,7,0,0,0,.63,13.84l1.33.12,1.29.11c.87.07,1.73.12,2.59.16l1.28.07,1.29.05,2.58.07,2.59,0c.86,0,1.72,0,2.58,0,1.73,0,3.46-.07,5.2-.15l2.61-.15,1.31-.09.66-.05.33,0,.56-.08a20.28,20.28,0,0,0,4.32-1.11,22.67,22.67,0,0,0,3.76-1.85,25.21,25.21,0,0,0,3.12-2.25,30.34,30.34,0,0,0,2.59-2.43c.79-.83,1.5-1.67,2.18-2.51s1.28-1.69,1.86-2.54a55.59,55.59,0,0,0,3.09-5.11q1.38-2.56,2.5-5.12c.75-1.71,1.44-3.42,2.09-5.13s1.24-3.41,1.79-5.12,1.06-3.42,1.54-5.14.91-3.43,1.33-5.15.79-3.44,1.14-5.18c.18-.87.34-1.74.5-2.62l.23-1.33.11-.68.12-.75A9.28,9.28,0,0,0,233.47,121Z"/><path class="cls-5" d="M253.32,126.7c-1.21,4.19-6.24,18.54-10.65,25.72l-19.4-9.17s6.62-15.33,10.08-25a11,11,0,0,1,6.74-6.74,9.68,9.68,0,0,1,7.54.47c5.58,2.66,6.19,8.81,6.12,11.85A11,11,0,0,1,253.32,126.7Z"/><polygon class="cls-10" points="179.68 277.19 174.57 285.55 164.82 281.23 169.25 272.26 179.68 277.19"/><path class="cls-6" d="M134,286l36.86,16.31a5.37,5.37,0,0,0,1.39-1.83c1.61-3,2.82-8.43,3.72-11.78l.3-1.09a13.9,13.9,0,0,1,.46-1.33,2.05,2.05,0,0,0-1.33-3.12c-5.34,2-7.14-5.35-10.4-4.64,0,0-1.4.29-5.49,1.63s-9.84.87-14.86.77c-6.48-.14-9,1.46-10,2.9A3.18,3.18,0,0,0,134,286Z"/><path class="cls-7" d="M134,286l36.86,16.31a5.37,5.37,0,0,0,1.39-1.83L134.57,283.8A3.18,3.18,0,0,0,134,286Z"/><path class="cls-7" d="M167.06,300.63l1.1.48a8.8,8.8,0,0,1,.63-6.77,11.33,11.33,0,0,1,7.14-5.66l.3-1.09a12.36,12.36,0,0,0-8.3,6.31A9.78,9.78,0,0,0,167.06,300.63Z"/><path class="cls-7" d="M159.13,282.58a.67.67,0,0,0,.79-.2.66.66,0,0,0-.11-.93l-2.05-1.59a.66.66,0,1,0-.82,1l2.05,1.6Z"/><path class="cls-7" d="M162.27,281.67a.64.64,0,0,0,.79-.2.67.67,0,0,0-.12-.93L160.89,279a.66.66,0,0,0-.81,1.05l2,1.59A.39.39,0,0,0,162.27,281.67Z"/><path class="cls-7" d="M156.24,282.9a.66.66,0,0,0,.67-1.13l-2-1.6a.67.67,0,0,0-.93.12.66.66,0,0,0,.12.93l2,1.59A.42.42,0,0,0,156.24,282.9Z"/><path class="cls-7" d="M153.36,283.17A.67.67,0,0,0,154,282l-2-1.59a.67.67,0,0,0-.93.12.66.66,0,0,0,.12.93l2,1.59Z"/><path class="cls-7" d="M150.33,283.24a.66.66,0,0,0,.79-.2.67.67,0,0,0-.12-.93L149,280.52a.66.66,0,1,0-.81,1.05l2.05,1.59Z"/><path class="cls-7" d="M147.15,283.05a.66.66,0,0,0,.68-1.13l-2.05-1.59a.67.67,0,0,0-.93.12.66.66,0,0,0,.12.93L147,283Z"/><path class="cls-7" d="M202.57,196.58c3.42-3.36,30.4-10.89,48.32-5.89a23.28,23.28,0,0,1-1.75,23.22c-23.56,3.85-36.7,11.78-36.7,11.78s-8.35,19.29-13.31,26.38-16.35,29.57-16.35,29.57l-17.14-7.32S193.26,205.75,202.57,196.58Z"/><path class="cls-8" d="M184.62,277.4a.41.41,0,0,1-.19,0l-16.78-7a.51.51,0,0,1-.27-.65.5.5,0,0,1,.65-.26l16.78,7a.49.49,0,0,1,.26.65A.49.49,0,0,1,184.62,277.4Z"/><path class="cls-8" d="M181.8,276a.39.39,0,0,1-.18,0,.49.49,0,0,1-.28-.64c0-.08,3.54-8.84,11.73-21.27s16.64-33.21,16.73-33.42a.49.49,0,0,1,.64-.27.49.49,0,0,1,.27.64c-.08.21-8.62,21.17-16.81,33.59s-11.61,21-11.64,21.1A.51.51,0,0,1,181.8,276Z"/><polygon class="cls-10" points="222.96 278.66 221.66 288.37 211.01 288.37 211.42 278.37 222.96 278.66"/><path class="cls-6" d="M184.71,305.2H225a5.62,5.62,0,0,0,.53-2.23c.25-3.41-.84-8.85-1.37-12.28-.07-.41-.12-.78-.17-1.12a12.74,12.74,0,0,1-.12-1.4,2.05,2.05,0,0,0-2.47-2.32c-4.08,4-8.7-2-11.4,0,0,0-1.16.83-4.36,3.71s-8.64,4.78-13.27,6.72c-6,2.5-7.68,5-8,6.72A3.13,3.13,0,0,0,184.71,305.2Z"/><path class="cls-7" d="M184.71,305.2H225a5.62,5.62,0,0,0,.53-2.23H184.38A3.13,3.13,0,0,0,184.71,305.2Z"/><path class="cls-7" d="M220.9,305.2h1.2a8.88,8.88,0,0,1-2.17-6.45,11.36,11.36,0,0,1,4.25-8.06c-.07-.41-.12-.78-.17-1.12a12.4,12.4,0,0,0-5,9.13A9.81,9.81,0,0,0,220.9,305.2Z"/><path class="cls-7" d="M206.34,291.91a.67.67,0,0,0,.65-.51.66.66,0,0,0-.49-.8L204,290a.68.68,0,0,0-.81.49.65.65,0,0,0,.49.8l2.51.63Z"/><path class="cls-7" d="M208.85,289.81a.66.66,0,0,0,.64-.5.67.67,0,0,0-.48-.81l-2.52-.62a.66.66,0,1,0-.32,1.29l2.52.62A.41.41,0,0,0,208.85,289.81Z"/><path class="cls-7" d="M203.83,293.37a.65.65,0,0,0,.64-.5.67.67,0,0,0-.48-.81l-2.52-.62a.66.66,0,1,0-.32,1.29l2.52.62A.41.41,0,0,0,203.83,293.37Z"/><path class="cls-7" d="M201.31,294.78a.65.65,0,0,0,.64-.51.66.66,0,0,0-.48-.8l-2.52-.62a.66.66,0,0,0-.32,1.28l2.52.63Z"/><path class="cls-7" d="M198.56,296.08a.66.66,0,0,0,.16-1.31l-2.51-.62a.66.66,0,1,0-.32,1.29l2.51.62Z"/><path class="cls-7" d="M195.59,297.19a.66.66,0,0,0,.64-.5.67.67,0,0,0-.48-.81l-2.52-.62a.66.66,0,0,0-.81.48.68.68,0,0,0,.49.81l2.52.62Z"/><path class="cls-5" d="M244.28,197.32c.64.39,1.32.77,2,1.12l.51.26a35,35,0,0,0,3.62,1.48l.55.18a52.26,52.26,0,0,0,16.57,2.39c1.4,0,2.82-.07,4.25-.19,1.61-.12,3.24-.31,4.87-.56,1.2-.19,2.4-.42,3.6-.68l.74-.17a52.72,52.72,0,0,0,19.74-9L301,192l.06-.44c.52-4.27,0-14-.58-22.15,0-.19,0-.37,0-.56-.27-3.61-.55-6.88-.76-9.19l-.06-.62c0-.38-.07-.72-.1-1-.12-1.27-.27-2.53-.44-3.79a166.27,166.27,0,0,0-3.64-18.33l-.26-1c0-.1-.05-.19-.07-.29l-.15-.57c-.44-1.75-.9-3.51-1.38-5.31l-.15-.54h0c-.13-.5-.27-1-.4-1.51-.07-.25-.14-.5-.2-.75-.62-2.32-1.26-4.68-1.9-7.11-2.33-8.73-6-14.43-10.73-16.37-.21-.09-.42-.17-.64-.24h0a9.79,9.79,0,0,0-3.55-.5h-.4l-.55,0a28.93,28.93,0,0,1-4.85-.37l-.45-.09-.57-.11-.86-.19-.68-.18a21.16,21.16,0,0,1-3.72-1.39l-14.63,2.93a11.4,11.4,0,0,1-3.79,4.72l-.53.37c-.26.19-.52.36-.79.52-.64.4-1.29.76-1.95,1.1l-.54.29c-3.88,2-7.6,3.59-7.6,8.65,0,2.44,1.65,6.08,3.61,12.11.08.24.15.48.23.72.35,1.09.71,2.26,1.06,3.51.06.22.12.42.19.64.87,3.16,1.75,6.8,2.52,11.06.21,1.2.42,2.46.62,3.77s.36,2.49.52,3.8.29,2.49.42,3.79c.12,1.14.22,2.31.31,3.52.06.76.12,1.53.17,2.32h0l0,.65c0,.28,0,.56.05.84.07,1.12.13,2.48.2,4,0,.19,0,.38,0,.57.08,1.81.16,3.83.22,6,0,.19,0,.38,0,.58.12,4.08.2,8.55.2,12.69,0,.25,0,.49,0,.74C244.46,192.21,244.41,195,244.28,197.32Z"/><path class="cls-11" d="M257.43,111c5.84-1.17,9.06-8.43,9.2-8.74a.42.42,0,0,0-.77-.34c0,.08-3.3,7.47-8.93,8.32a7.25,7.25,0,0,1-7.79-3.42.4.4,0,0,0-.56-.18.41.41,0,0,0-.18.56,8.23,8.23,0,0,0,8.66,3.87Z"/><path class="cls-11" d="M263,188.7c5.28-1.89,10.51-5.44,15.51-10.59a73.34,73.34,0,0,0,11-14.81.42.42,0,1,0-.74-.39,72.57,72.57,0,0,1-10.89,14.63c-6.23,6.4-16.11,13.61-27.81,11.56a.42.42,0,0,0-.48.34.41.41,0,0,0,.34.48A25.25,25.25,0,0,0,263,188.7Z"/><path class="cls-11" d="M260.42,184.21h0c8.55-1.86,13.27-14.7,13.46-15.24a.4.4,0,0,0-.25-.53.41.41,0,0,0-.53.25c-.05.13-4.76,12.94-12.86,14.7a.42.42,0,0,0-.32.5A.43.43,0,0,0,260.42,184.21Z"/><path class="cls-11" d="M243.77,163.85a12.54,12.54,0,0,0,2.86-2.63c1.93-2.46,2.21-5,.79-7.13-.28-.43-.55-.82-.79-1.18-2.89-4.32-3.2-4.77-2.87-11.81a6.38,6.38,0,0,0-1.8-5.2,7.19,7.19,0,0,0-3-1.6c.06.21.12.43.19.64a6.28,6.28,0,0,1,2.41,1.37,5.91,5.91,0,0,1,1.63,4.76c-.34,7.23,0,7.79,3,12.15l.79,1.18c1.72,2.59.26,5.17-.77,6.48a12.07,12.07,0,0,1-2.46,2.32h0C243.74,163.42,243.76,163.63,243.77,163.85Z"/><path class="cls-11" d="M242.49,149.26a.34.34,0,0,0,.19-.37c-1.51-6.95-5.78-21.88-5.83-22a.32.32,0,1,0-.62.18c0,.15,4.31,15,5.82,22a.31.31,0,0,0,.38.25Z"/><path class="cls-11" d="M289.16,159.22a7.34,7.34,0,0,0,6.85,1.92,11.19,11.19,0,0,0,3.65-1.47l-.06-.62c-4.19,2.65-8,1.92-10-.22a5,5,0,0,1-.28-7c2.49-2.79,1.36-4.43.16-6.17s-2.41-3.48-1-6.78a6.79,6.79,0,0,1,3.7-3.87,7.35,7.35,0,0,1,2.94-.46l-.15-.56a7.7,7.7,0,0,0-3,.5,7.3,7.3,0,0,0-4,4.17c-1.54,3.59-.11,5.65,1,7.32s2.09,3-.11,5.48A5.56,5.56,0,0,0,289.16,159.22Z"/><path class="cls-11" d="M260.27,161.6a6.37,6.37,0,0,0,7.21,2.84,13,13,0,0,0,1.32-.46c3.59-1.5,7.76-5.06,9.38-9.24a10.42,10.42,0,0,0-1-9.59c-2.81-4.51-4.42-8.68-4.67-12.06a4.41,4.41,0,0,0-8.28-1.78l-.15.28c-2.45,4.67-1,8.08.19,11.09s2.41,5.86-1.25,9.34C259.7,155.18,258.66,158.76,260.27,161.6Zm3.14-9.18c3.94-3.74,2.69-6.76,1.38-10-1.25-3-2.54-6.17-.21-10.61l.15-.28a3.86,3.86,0,0,1,1.9-1.74,3.92,3.92,0,0,1,2.31-.2,3.81,3.81,0,0,1,3,3.5,21,21,0,0,0,1.67,6.46,40.66,40.66,0,0,0,3.08,5.85,9.77,9.77,0,0,1,.94,9.1,17.29,17.29,0,0,1-10.33,9.36,5.78,5.78,0,0,1-6.57-2.58C259.28,158.73,260.28,155.4,263.41,152.42Z"/><path class="cls-11" d="M237.69,130.08c.08.23.15.47.23.71a8.89,8.89,0,0,0,5.17.5,10.2,10.2,0,0,0,1.88-.59c3.58-1.5,6-4.77,6-6.77a1.59,1.59,0,0,0-1.05-1.55c-3.81-1.43-5.35-4-5.87-9.73a5.07,5.07,0,0,0-1.81-3.63l-.55.29.13.1a4.41,4.41,0,0,1,1.67,3.28c.55,6,2.18,8.69,6.24,10.21a1,1,0,0,1,.68,1c0,1.82-2.37,4.88-5.65,6.25A8.56,8.56,0,0,1,237.69,130.08Z"/><path class="cls-11" d="M257.47,131.2a3,3,0,0,0,2.88.82,4.13,4.13,0,0,0,1.08-.39c1.77-1,2.45-3,1.81-5.43s.66-3.75,1.95-4.91c1.13-1,2.29-2.07,1.4-3.9a3.47,3.47,0,0,0-3.71-1.93,6,6,0,0,0-4.84,3.31C256.38,122,254.75,128.2,257.47,131.2ZM258.53,119a5.39,5.39,0,0,1,4.39-3,2.92,2.92,0,0,1,3.17,1.62c.71,1.46-.12,2.21-1.28,3.25s-2.86,2.58-2.11,5.46c.57,2.17,0,4-1.53,4.8a2.76,2.76,0,0,1-3.29-.31C255.35,128,256.94,122.1,258.53,119Z"/><path class="cls-11" d="M249.07,150.84a4.67,4.67,0,0,0,1.89,3.28,6.15,6.15,0,0,0,4.13,1.06,2.24,2.24,0,0,0,1.19-.62c.91-1,.63-2.71-.77-4.79-1.63-2.41-.16-3.92,1.39-5.52,1.32-1.36,2.69-2.77,2-4.72-.54-1.41-1.78-2.07-3.61-1.93a6.78,6.78,0,0,0-6.07,5.81A23.52,23.52,0,0,0,249.07,150.84Zm.65-7.35a6.32,6.32,0,0,1,1.64-3.42,6.06,6.06,0,0,1,3.23-1.82l.69-.09c1.6-.13,2.6.38,3,1.56.62,1.63-.56,2.85-1.82,4.14-1.56,1.61-3.33,3.44-1.45,6.22,1.24,1.85,1.54,3.34.82,4.09s-2.7.63-4.62-.52S248.94,149,249.72,143.49Z"/><path class="cls-11" d="M244.27,175.81c2.25-.79,3,.34,4.06,2,1,1.46,2.15,3.28,4.86,3.95a6.11,6.11,0,0,0,2.65.06,7.17,7.17,0,0,0,4.89-3.89,5,5,0,0,0-1.28-6.45,3,3,0,0,1-1.38-1.9c-.11-.87.56-1.71,1.26-2.6,1-1.23,2.1-2.63,1.27-4.44a4,4,0,0,0-3.48-2.43c-2.67-.22-5.67,1.56-7.66,4.52a9.74,9.74,0,0,1-5.45,4.09l0,.57a10.32,10.32,0,0,0,5.88-4.35,9.46,9.46,0,0,1,5.66-4.18,5.36,5.36,0,0,1,1.49-.09,3.49,3.49,0,0,1,3,2.1c.68,1.5-.23,2.65-1.2,3.86-.75.94-1.52,1.91-1.39,3a3.61,3.61,0,0,0,1.6,2.28,4.5,4.5,0,0,1,1.12,5.76,6.22,6.22,0,0,1-6.9,3.53c-2.51-.62-3.58-2.26-4.54-3.71-1.07-1.63-2-3.06-4.54-2.25C244.26,175.42,244.26,175.61,244.27,175.81Z"/><path class="cls-11" d="M296.93,183c-1.95,3.14-1.18,6.67.7,8.27a3.89,3.89,0,0,0,3.12.92L301,192l.06-.44a3.35,3.35,0,0,1-3.05-.73c-1.7-1.45-2.38-4.67-.59-7.55s.42-3.85-1.06-4.83-2.77-1.83-2.53-4.47a4.27,4.27,0,0,1,1.61-3.1,6.62,6.62,0,0,1,2.89-1.24,13.37,13.37,0,0,1,2.15-.23c0-.19,0-.37,0-.56a9.16,9.16,0,0,0-5.35,1.59,4.81,4.81,0,0,0-1.81,3.49c-.27,3,1.42,4.08,2.77,5S298.45,180.53,296.93,183Z"/><path class="cls-11" d="M250.43,200.17l.55.19a5.82,5.82,0,0,1,1.54-3.92,5.64,5.64,0,0,1,4.73-1.17,8,8,0,0,1,5.07,2.51c1.83,1.71,3.1,2.52,7.94-.57a14.9,14.9,0,0,1,5-2.16c2.39-.48,4.23,0,5.18,1,1.17,1.24,1.09,3.16-.2,5.24l.74-.17c1.17-2.13,1.13-4.12-.14-5.45-1.69-1.78-5.83-2.21-10.91,1-4.72,3-5.67,2.12-7.26.63a8.59,8.59,0,0,0-5.38-2.65,6.12,6.12,0,0,0-5.18,1.32A6.19,6.19,0,0,0,250.43,200.17Z"/><path class="cls-11" d="M281.8,191.53a4.89,4.89,0,0,0,5.13,2.32l.28-.07c3.28-.89,5.2-3.53,5.38-7.42.15-3-.1-6-2.88-7.29h0c-.13,0-3.21-.82-5.15.47a3.4,3.4,0,0,0-1.46,2.44,6.27,6.27,0,0,0,.71,3.95c.51,1.05.75,1.53-.87,2.61A2.31,2.31,0,0,0,281.8,191.53Zm1.4-2.53c1.92-1.29,1.65-2.1,1.06-3.32a5.74,5.74,0,0,1-.66-3.62,2.83,2.83,0,0,1,1.22-2.07c1.65-1.09,4.39-.47,4.67-.4,2,.94,2.73,2.9,2.55,6.74-.13,2.57-1.09,5.86-5,6.92a4.36,4.36,0,0,1-4.75-1.95C281.92,190.44,282.22,189.65,283.2,189Z"/><path class="cls-11" d="M246.3,198.44l.51.25a5.37,5.37,0,0,0,1.47-4.38c-.34-2.53-2.43-4.66-3.81-5.81,0,.25,0,.49,0,.74,1.29,1.15,3,3,3.26,5.14a4.94,4.94,0,0,1-1.38,4Z"/><path class="cls-12" d="M259.84,68.79c.78,3.21,1.62,4.25,1.78,22.78L237.53,83.9s-2.12-5.78-3.63-10.32c-1-.31-2.36-1-2.36-2.16s1-1.54,1.46-1.8c-.12-.45-.57-1-.59-1.16-.16-1.92,2.25-2.17,2.25-2.17s-.08-2.75,1-3a4.64,4.64,0,0,1,2.5.42s1.15-2.34,2.74-2.34,1.95.84,1.95.84a2.25,2.25,0,0,1,4-.09A4.31,4.31,0,0,1,249.46,61a1.56,1.56,0,0,1,1.5,1.17s1.18-1.6,2.57-1.17A2.53,2.53,0,0,1,255.08,63s1.44-1.17,2.43.08a1.44,1.44,0,0,1,0,2.09s2.08.58,2.33,1.83A3.11,3.11,0,0,1,259.84,68.79Z"/><path class="cls-13" d="M243.07,85.35s-2.25-3.62-5.22-1.91-.4,12.4,5.61,10.52Z"/><path class="cls-10" d="M264.11,100.14s1.15,1.1-4.23,4.51a13.15,13.15,0,0,1-9,1.59,12.69,12.69,0,0,1-1.44-.43,16.75,16.75,0,0,0-2.47-8,1.16,1.16,0,0,0-.11-.14l13-12.26Z"/><path class="cls-12" d="M259.47,92.05s-.61,11.23-8.62,14.19a12.69,12.69,0,0,1-1.44-.43,16.75,16.75,0,0,0-2.47-8Z"/><path class="cls-10" d="M255.14,99.13c-5.95,3.08-11.78,1.84-14-3.4-.53-1.26-1.15-3.13-1.76-5.09v-.06L239,89.32c-.09-.31-.18-.61-.26-.92-1-3.51-1.86-6.72-1.86-6.72-1.64-9,6-14.77,13.93-13.48s8.33,12.68,9.83,17.87A10.78,10.78,0,0,1,255.14,99.13Z"/><path class="cls-12" d="M248.84,82.81c.15.59,0,1.15-.42,1.25s-.81-.31-1-.9,0-1.15.42-1.25S248.69,82.22,248.84,82.81Z"/><path class="cls-12" d="M242.33,84.81c.15.6,0,1.15-.41,1.25s-.81-.31-1-.9,0-1.15.41-1.25S242.18,84.22,242.33,84.81Z"/><path class="cls-4" d="M251.1,88.35s.16,3.67-2.36,5.18c-2.86,1.7-4.93-1.91-4.93-1.91Z"/><path class="cls-12" d="M249.86,80.12c1.9-.17,1.82-2.23-.09-2.73a4.89,4.89,0,0,0-2.62-.13c-2.36.7-1.93,2.37-.55,2.69A13.48,13.48,0,0,0,249.86,80.12Z"/><path class="cls-12" d="M239.44,82.24c-1.77.72-2.64-1.16-1.16-2.47a5,5,0,0,1,2.29-1.3c2.41-.44,2.79,1.25,1.7,2.16A13.35,13.35,0,0,1,239.44,82.24Z"/><path class="cls-13" d="M240.16,90.51a7.39,7.39,0,0,1-.75.13v-.06L239,89.32c-.09-.31-.18-.61-.26-.92.27-.09.57-.18.88-.25,1.62-.36,3.05-.12,3.2.53S241.78,90.15,240.16,90.51Z"/><path class="cls-12" d="M245.63,89.44a.38.38,0,0,1-.15,0,5.17,5.17,0,0,1-2.22-1.07.29.29,0,0,1,0-.27l1.11-3.73,0,0a5.55,5.55,0,0,0-.29-3,.29.29,0,1,1,.57-.14,5.86,5.86,0,0,1,.26,3.38l-1,3.52a6.81,6.81,0,0,0,1.83.79.3.3,0,0,1,.19.37A.28.28,0,0,1,245.63,89.44Z"/><path class="cls-13" d="M256.33,84.31c.15.66-1,1.48-2.67,1.84s-3,.12-3.19-.53,1.05-1.47,2.67-1.84S256.19,83.66,256.33,84.31Z"/><path class="cls-12" d="M258.63,76.88a3,3,0,0,1,0,.34s-1.28,1-1.13,4l-1.91.5a14.45,14.45,0,0,1-1.83-6.16,4,4,0,0,0-.23-.92c-1.41-3.37-8.4-4.71-12.37-2.64a8.59,8.59,0,0,0-4.48,6.84,14.55,14.55,0,0,0,.39,3.47,11,11,0,0,1,0-9.28c2.83-6.34,11.79-8.75,16.88-4.73A11.39,11.39,0,0,1,258.63,76.88Z"/><path class="cls-12" d="M249.22,71.47c1.11.39,3.06,1.52,1.89,2.81l2.76.32C253.5,73.19,251.42,71.66,249.22,71.47Z"/><path class="cls-13" d="M258.63,76.88a3,3,0,0,1,0,.34s-1.28,1-1.13,4l-1.91.5a14.45,14.45,0,0,1-1.83-6.16,4,4,0,0,0-.23-.92Z"/><path class="cls-13" d="M248.31,95.23h-.26a.35.35,0,0,1-.33-.36.35.35,0,0,1,.37-.33,2.22,2.22,0,0,0,1.92-1,.34.34,0,1,1,.59.34A2.84,2.84,0,0,1,248.31,95.23Z"/><path class="cls-10" d="M257.29,79.33s.95-3.45,4.34-2.91,4.76,11.45-1.52,11.83Z"/><path class="cls-4" d="M261.1,85.81a1,1,0,1,0,.8-1.16A1,1,0,0,0,261.1,85.81Z"/><path class="cls-12" d="M260.2,84.22h-.07a.29.29,0,0,1-.29-.29c0-.14,0-3.41,2.63-4.66a.29.29,0,0,1,.39.13.3.3,0,0,1-.13.4c-2.29,1.09-2.3,4.1-2.3,4.13A.3.3,0,0,1,260.2,84.22Z"/><path class="cls-12" d="M262.46,82.53a.35.35,0,0,1-.22,0s-.72-.44-1.53-.85a.29.29,0,0,1-.14-.39.3.3,0,0,1,.4-.14c.84.42,1.55.86,1.58.88a.29.29,0,0,1,.1.4A.37.37,0,0,1,262.46,82.53Z"/><path class="cls-4" d="M255.06,123.35a3.83,3.83,0,0,1-2.6-1c-4.43-3.91-4.42-18.1-4.41-18.7a.51.51,0,0,1,.51-.51h0a.51.51,0,0,1,.51.52c0,.14,0,14.32,4.06,17.92a2.79,2.79,0,0,0,2.32.74c5.45-.72,7.94-16.6,8.44-22.66a.51.51,0,0,1,.55-.47.5.5,0,0,1,.47.55,86.21,86.21,0,0,1-1.8,11.3c-1.83,7.75-4.36,11.89-7.53,12.3A3.23,3.23,0,0,1,255.06,123.35Z"/><path class="cls-7" d="M299.87,191s8.31,32.83-34.82,32.83c-23,0-34-2.23-34-2.23s-.55,20.34-1.62,28.93-4.87,30-4.87,30l-18.15,1.41s-2.9-74.48,8.22-81.34,27.11-7.06,54.57-9.69C269.21,190.83,293.85,186.65,299.87,191Z"/><path class="cls-8" d="M222.08,274.5H222a.49.49,0,0,1-.37-.59c2.51-10.48,3.5-25.49,4.3-37.55.79-11.89,1.26-18.14,2.5-19.23s5.4-.78,12.09-.06c8.3.88,20.83,2.21,34.35.66,6.71-.77,11.85-3.4,15.29-7.81,6.16-7.92,4.75-19,4.73-19.15a.51.51,0,0,1,.43-.56.5.5,0,0,1,.55.43c.07.47,1.49,11.62-4.93,19.88-3.6,4.63-9,7.39-16,8.19-13.62,1.56-26.22.22-34.56-.66-5.76-.62-10.3-1.1-11.34-.18-.23.2-.69,1.22-1.18,5.74-.35,3.33-.64,7.72-1,12.82-.8,12.09-1.8,27.15-4.33,37.71A.49.49,0,0,1,222.08,274.5Z"/><path class="cls-8" d="M206.62,276a.5.5,0,0,1-.5-.46.51.51,0,0,1,.47-.52l18.55-1.12a.49.49,0,0,1,.53.46.5.5,0,0,1-.47.53L206.65,276Z"/><path class="cls-10" d="M269.76,115.65l-.08,1.28-.1,1.38c-.07.93-.13,1.86-.22,2.79-.16,1.87-.34,3.73-.56,5.59-.1.93-.22,1.86-.34,2.78s-.24,1.85-.38,2.77c-.26,1.84-.58,3.66-.91,5.46s-.7,3.57-1.12,5.31c-.21.86-.44,1.72-.67,2.57s-.47,1.68-.73,2.5a49.5,49.5,0,0,1-1.7,4.65,28.11,28.11,0,0,1-2,3.89,11.92,11.92,0,0,1-2,2.46,4.76,4.76,0,0,1-.74.55l-.08,0,0,0H258l-.46.2-.24.1-.25.1-.52.19c-.72.27-1.5.51-2.3.75s-1.66.47-2.52.68c-1.72.44-3.51.84-5.33,1.19s-3.68.7-5.56,1l-2.82.44c-.94.16-1.89.3-2.84.44-1.9.27-3.8.55-5.72.8l-5.68.74-.17,0a7,7,0,0,0,.58,13.88l.81,0,.77,0,1.54.05c1,0,2,0,3.06,0,2,0,4.08,0,6.13-.06l3.07-.11c1,0,2.06-.1,3.09-.17,2.06-.13,4.13-.29,6.22-.52s4.21-.51,6.36-.88a61.32,61.32,0,0,0,6.69-1.5l.89-.27.45-.14.46-.16.93-.33,0,0,.08,0,.15-.06.31-.13.6-.27a21.72,21.72,0,0,0,4.27-2.61,28.44,28.44,0,0,0,5.9-6.34,43.54,43.54,0,0,0,3.7-6.51,66.63,66.63,0,0,0,2.56-6.43c.36-1.06.7-2.12,1-3.17s.6-2.12.87-3.17c.55-2.1,1-4.2,1.44-6.28s.76-4.18,1.08-6.26c.15-1,.3-2.08.43-3.11s.26-2.08.37-3.12c.22-2.08.41-4.15.55-6.23.07-1.05.14-2.09.18-3.14l.07-1.59,0-.8,0-.88a9.28,9.28,0,0,0-18.55-.75Z"/><path class="cls-7" d="M226.61,165.16s2.37,7.7.89,14a4.64,4.64,0,0,1-3.44.71,31.86,31.86,0,0,0-.92-14.66A4.32,4.32,0,0,1,226.61,165.16Z"/><path class="cls-7" d="M222.06,174.14a4.41,4.41,0,1,0,4.13-4.68A4.41,4.41,0,0,0,222.06,174.14Z"/><path class="cls-4" d="M226.65,177a3.17,3.17,0,1,0-3.36-3A3.18,3.18,0,0,0,226.65,177Z"/><path class="cls-13" d="M266.46,164.92a.29.29,0,0,0,.21-.08.32.32,0,0,0,0-.46,24.12,24.12,0,0,0-7.59-5.22.33.33,0,0,0-.43.17.33.33,0,0,0,.18.43,24,24,0,0,1,7.35,5.06A.35.35,0,0,0,266.46,164.92Z"/><path class="cls-13" d="M265.8,160.8a.31.31,0,0,0,.31-.25.32.32,0,0,0-.24-.39,28.44,28.44,0,0,0-6.22-.71.32.32,0,0,0-.31.34.33.33,0,0,0,.34.31,28.49,28.49,0,0,1,6.05.69Z"/><path class="cls-5" d="M290.44,117c-.1,4.36-1.29,19.51-3.71,27.59l-21.1-3.9S268.1,124.18,269,114a11,11,0,0,1,4.79-8.23,10.1,10.1,0,0,1,11.33.17l.47.36a13.28,13.28,0,0,1,3.9,5.72c.07.18.13.36.19.53.2.6.36,1.16.47,1.64A10.93,10.93,0,0,1,290.44,117Z"/><path class="cls-11" d="M289.47,112a9.13,9.13,0,0,1-4.73.2,7.37,7.37,0,0,0-2.46-.1,3.38,3.38,0,0,0-1.88,1.14c-1.45,1.61-3.37,2.47-4.67,2.11a1.73,1.73,0,0,1-1.24-1.46c0-.21-.12-2.69,1.27-4.08a3.68,3.68,0,0,1,3-1,7.73,7.73,0,0,0,6.05-2l.76-.57-.47-.36c-.23.16-.43.32-.64.48a7.17,7.17,0,0,1-5.66,1.9,4.2,4.2,0,0,0-3.44,1.11c-1.63,1.63-1.44,4.42-1.43,4.54v0a2.3,2.3,0,0,0,1.65,1.92,3.32,3.32,0,0,0,1.54,0,7.19,7.19,0,0,0,3.7-2.31c1.14-1.27,2.27-1.1,3.83-.86a9.72,9.72,0,0,0,5-.23C289.6,112.35,289.54,112.17,289.47,112Z"/><path class="cls-11" d="M284.15,133.72a11.88,11.88,0,0,0-2.37-3.6,7.18,7.18,0,0,1-2.29-5.52,4.18,4.18,0,0,0-1.35-3.35c-1.74-1.51-4.5-1.14-4.62-1.12h0a2.28,2.28,0,0,0-1.8,1.77,3.26,3.26,0,0,0,.08,1.54,7.11,7.11,0,0,0,2.55,3.53c1.35,1.06,1.25,2.2,1.12,3.77a9.43,9.43,0,0,0,.95,5.77,4.26,4.26,0,0,0,5.71,2.08A3.73,3.73,0,0,0,284.15,133.72Zm-2.29,4.36a3.72,3.72,0,0,1-5-1.82,8.84,8.84,0,0,1-.88-5.46,7.16,7.16,0,0,0-.07-2.46,3.33,3.33,0,0,0-1.27-1.8c-1.7-1.34-2.7-3.2-2.43-4.51a1.73,1.73,0,0,1,1.38-1.34c.21,0,2.67-.3,4.15,1a3.64,3.64,0,0,1,1.15,2.92,7.73,7.73,0,0,0,2.43,5.89,11.17,11.17,0,0,1,2.27,3.44A3.17,3.17,0,0,1,281.86,138.08Z"/><path class="cls-11" d="M286.73,144.92a.33.33,0,0,0,.31-.22A84.28,84.28,0,0,0,290.63,120a.32.32,0,0,0-.33-.31h0a.31.31,0,0,0-.31.33,83.34,83.34,0,0,1-3.56,24.52.33.33,0,0,0,.21.41Z"/><path class="cls-11" d="M265.63,141a.33.33,0,0,0,.32-.26c1.23-7,2.93-22.44,2.95-22.6a.32.32,0,0,0-.29-.35.31.31,0,0,0-.35.28c0,.16-1.72,15.57-2.95,22.55a.33.33,0,0,0,.26.38Z"/><path class="cls-14" d="M129.4,197.78H310.55a1.55,1.55,0,0,0,1.55-1.56V190H127.85v6.27A1.55,1.55,0,0,0,129.4,197.78Z"/><rect class="cls-14" x="144.71" y="244.81" width="146.51" height="5.37"/><polygon class="cls-3" points="151.05 308.33 135.62 197.78 141.04 197.78 156.47 308.33 151.05 308.33"/><polygon class="cls-3" points="138.37 308.33 153.8 197.78 148.38 197.78 132.95 308.33 138.37 308.33"/><polygon class="cls-3" points="299.59 308.33 284.16 197.78 289.58 197.78 305.01 308.33 299.59 308.33"/><polygon class="cls-3" points="287.07 308.33 302.5 197.78 297.08 197.78 281.65 308.33 287.07 308.33"/><path class="cls-3" d="M120.48,183.79v3a3,3,0,0,0,2.78,3.16H316.14a3,3,0,0,0,2.77-3.16v-3a3,3,0,0,0-2.77-3.15H123.26A3,3,0,0,0,120.48,183.79Z"/><rect class="cls-14" x="120.48" y="185.31" width="198.43" height="1.39"/><path class="cls-8" d="M240.26,180.67H195.39l-.48-1.69a1.66,1.66,0,0,1,1.6-2.13h41.4a1.67,1.67,0,0,1,1.6,1.21Z"/><path class="cls-7" d="M153.86,141.65,162.68,179a2.21,2.21,0,0,0,2.15,1.7H219.2a2.2,2.2,0,0,0,2.14-2.71l-8.82-37.33a2.22,2.22,0,0,0-2.15-1.7H156A2.21,2.21,0,0,0,153.86,141.65Z"/><path class="cls-8" d="M180.27,161.26a4.88,4.88,0,0,0,4.73,4.26,3.74,3.74,0,0,0,3.78-4.26,4.87,4.87,0,0,0-4.72-4.25A3.74,3.74,0,0,0,180.27,161.26Z"/><path class="cls-8" d="M208.22,138.93l9.39,41.74h1.59a2.2,2.2,0,0,0,2.14-2.71l-8.82-37.33a2.22,2.22,0,0,0-2.15-1.7Z"/><path class="cls-15" d="M55.32,281.65s-8.2,1.82-7-3.9,1.13-7.82-2.2-10.42-6.69-3.89-4.14-8-2.28-7.32-4.79-9.53.33-3.89,1-8.07-3.84-3.56-4.2-8.84,5-11.44.4-18.69c0,0,6.19,3.2,8.22,8.84s.39,10,4.05,12.13,5.94,5.85,4.7,9.65.52,5.82,3.52,8.6,2.2,3.87,1.82,7.27.38,2.59,3.81,7.22S64,280.13,55.32,281.65Z"/><path class="cls-7" d="M56.49,281.4a.26.26,0,0,1-.05-.09L40,231.54a.41.41,0,0,1,.26-.52h0a.41.41,0,0,1,.51.26l16.4,49.78a.5.5,0,0,1,0,.12Z"/><path class="cls-15" d="M70.11,281.55s8.15,1.81,6.94-3.88-1.12-7.79,2.19-10.37,6.65-3.86,4.11-8,2.28-7.27,4.76-9.48-.32-3.86-1-8,3.83-3.53,4.18-8.78-5-11.38-.4-18.6c0,0-6.15,3.19-8.17,8.8s-.39,9.94-4,12.07-5.91,5.81-4.68,9.6-.52,5.79-3.5,8.54-2.18,3.86-1.81,7.23-.38,2.58-3.79,7.19S61.43,280,70.11,281.55Z"/><path class="cls-7" d="M68.2,281.08a.25.25,0,0,1,0-.12l16.31-49.51a.4.4,0,0,1,.5-.26h0a.41.41,0,0,1,.26.51L69,281.21l0,.09Z"/><path class="cls-6" d="M61.05,280.52s-9.38-.78-6.17-6.5,3.8-8,1.1-11.9-5.87-6.38-1.77-9.94,0-8.59-2-11.8,1.64-4,3.74-8.32-2.93-5.08-1.56-10.85,9.16-10.59,6.63-19.89c0,0,5.57,5.49,5.87,12.2s-2.9,10.83.31,14.34,4.42,8.24,1.83,11.9-1.38,6.4.91,10.37,1.07,4.88-.46,8.39-.45,2.9,1.68,9S70.9,281.78,61.05,280.52Z"/><path class="cls-7" d="M62.39,280.63a.36.36,0,0,1,0-.11l-1-58.76a.45.45,0,0,1,.45-.46h0a.45.45,0,0,1,.45.45l1,58.76a.59.59,0,0,1,0,.13Z"/><path class="cls-3" d="M88.36,278.53l-.67,1.8-.43,1.14L86,284.74l-.44,1.14-1.26,3.36-.43,1.14-5.42,14.41a97.85,97.85,0,0,1-29.64,0l-5.43-14.41L43,289.24l-1.26-3.36-.43-1.14-1.23-3.27-.43-1.14-.68-1.8A1.88,1.88,0,0,1,40.72,276H86.6A1.88,1.88,0,0,1,88.36,278.53Z"/><polygon class="cls-14" points="87.69 280.33 87.26 281.47 40.06 281.47 39.63 280.33 87.69 280.33"/><polygon class="cls-14" points="86.03 284.74 85.59 285.88 41.72 285.88 41.29 284.74 86.03 284.74"/><polygon class="cls-14" points="84.33 289.24 83.9 290.38 43.41 290.38 42.98 289.24 84.33 289.24"/><path class="cls-1" d="M54.9,205.49H14.79a.63.63,0,0,1,0-1.25H54.9a.63.63,0,1,1,0,1.25Z"/><path class="cls-1" d="M4.67,208.49a3.75,3.75,0,1,1,3.75-3.75A3.75,3.75,0,0,1,4.67,208.49Zm0-6.25a2.5,2.5,0,1,0,2.5,2.5A2.5,2.5,0,0,0,4.67,202.24Z"/><path class="cls-1" d="M285.77,4.5H197.14a.63.63,0,0,1,0-1.25h88.63a.63.63,0,0,1,0,1.25Z"/><path class="cls-1" d="M187,7.5a3.75,3.75,0,1,1,3.75-3.75A3.75,3.75,0,0,1,187,7.5Zm0-6.25a2.5,2.5,0,1,0,2.5,2.5A2.5,2.5,0,0,0,187,1.25Z"/><path class="cls-1" d="M309,96a3.75,3.75,0,1,1,3.75-3.75A3.75,3.75,0,0,1,309,96Zm0-6.25a2.5,2.5,0,1,0,2.5,2.5A2.51,2.51,0,0,0,309,89.76Z"/><path class="cls-1" d="M316,104.94a.56.56,0,0,1-.56-.55v-3.28a.56.56,0,0,1,1.12,0v3.28A.56.56,0,0,1,316,104.94Z"/><path class="cls-1" d="M316,111a.56.56,0,0,1-.56-.56v-3.28a.56.56,0,0,1,1.12,0v3.28A.56.56,0,0,1,316,111Z"/><path class="cls-1" d="M314.65,106.33h-3.28a.56.56,0,1,1,0-1.11h3.28a.56.56,0,1,1,0,1.11Z"/><path class="cls-1" d="M320.71,106.33h-3.28a.56.56,0,1,1,0-1.11h3.28a.56.56,0,0,1,0,1.11Z"/><path class="cls-1" d="M5.23,62.17a.55.55,0,0,1-.56-.55V58.34a.56.56,0,1,1,1.11,0v3.28A.55.55,0,0,1,5.23,62.17Z"/><path class="cls-1" d="M5.23,68.23a.56.56,0,0,1-.56-.56V64.39a.56.56,0,0,1,1.11,0v3.28A.56.56,0,0,1,5.23,68.23Z"/><path class="cls-1" d="M3.84,63.56H.56a.56.56,0,1,1,0-1.11H3.84a.56.56,0,0,1,0,1.11Z"/><path class="cls-1" d="M9.89,63.56H6.61a.56.56,0,0,1,0-1.11H9.89a.56.56,0,1,1,0,1.11Z"/><path class="cls-1" d="M317.13,74.83a19.35,19.35,0,0,1-10.44-3L298.11,74a.72.72,0,0,1-.8-1l4.06-7.25a11,11,0,0,1-.86-4.27,12.14,12.14,0,0,1,4.93-9.51,19.59,19.59,0,0,1,23.38,0,11.66,11.66,0,0,1,0,19A18.77,18.77,0,0,1,317.13,74.83Zm-10.3-4.44a.72.72,0,0,1,.4.12,17.75,17.75,0,0,0,9.9,2.9c8.37,0,15.19-5.36,15.19-12s-6.82-12-15.19-12-15.19,5.36-15.19,12a9.51,9.51,0,0,0,.88,4,.74.74,0,0,1,0,.65l-3.43,6.12,7.29-1.82Z"/><path class="cls-1" d="M324.42,64.78a3,3,0,1,1,3-3A3,3,0,0,1,324.42,64.78Zm0-4.6a1.61,1.61,0,1,0,1.61,1.6A1.6,1.6,0,0,0,324.42,60.18Z"/><path class="cls-1" d="M317.14,64.78a3,3,0,1,1,3-3A3,3,0,0,1,317.14,64.78Zm0-4.6a1.61,1.61,0,1,0,1.6,1.6A1.61,1.61,0,0,0,317.14,60.18Z"/><path class="cls-1" d="M309.85,64.78a3,3,0,1,1,3-3A3,3,0,0,1,309.85,64.78Zm0-4.6a1.61,1.61,0,1,0,1.61,1.6A1.6,1.6,0,0,0,309.85,60.18Z"/></g></g></svg>